<?xml version="1.0" encoding="utf-8"?>
<!-- Generator: Adobe Illustrator 19.2.1, SVG Export Plug-In . SVG Version: 6.00 Build 0)  -->
<svg version="1.1" id="Layer_1" xmlns="http://www.w3.org/2000/svg" xmlns:xlink="http://www.w3.org/1999/xlink" x="0px" y="0px"
	 viewBox="0 0 32 32" enable-background="new 0 0 32 32" xml:space="preserve">
<path fill="#231F20" d="M7.3,21c0,0,0.2,0.5,0.3,0.7C8.1,23,8.9,24.1,9.9,25c1,1,2.1,1.7,3.3,2.2c1.3,0.5,2.7,0.8,4.1,0.8
	c1.4,0,2.8-0.3,4.1-0.8c1.2-0.5,2.4-1.3,3.3-2.2c1-1,1.7-2.1,2.2-3.3c0.5-1.3,0.8-2.7,0.8-4.1c0-1.4-0.3-2.8-0.8-4.1
	c-0.5-1.2-1.3-2.4-2.2-3.3c-1-1-2.1-1.7-3.3-2.2c-1.3-0.5-2.7-0.8-4.1-0.8c-1.4,0-2.9,0.3-4.1,0.8c-1,0.4-2.7,1.5-3.7,2.6l0,0V2
	l14.5,0c0.5,0,0.5-0.7,0.5-1c0-0.2,0-1-0.5-1L8.2,0C7.8,0,7.5,0.4,7.5,0.7v12.1c0,0.4,0.5,0.7,0.9,0.8c0.9,0.2,1.1-0.1,1.3-0.4l0,0
	c0.3-0.5,1.4-1.5,1.4-1.5c1.6-1.6,3.8-2.5,6.1-2.5c2.3,0,4.4,0.9,6.1,2.5c1.6,1.6,2.5,3.8,2.5,6c0,2.3-0.9,4.4-2.5,6
	c-1.6,1.6-3.8,2.5-6.1,2.5c-1.5,0-3-0.4-4.3-1.2l0-7.4c0-1,0.4-2.1,1.1-2.9c0.8-0.9,1.9-1.4,3.2-1.4c1.2,0,2.3,0.5,3.1,1.3
	c0.8,0.8,1.3,1.9,1.3,3.1c0,2.5-1.9,4.4-4.4,4.4c-0.5,0-1.3-0.2-1.4-0.2c-0.5-0.1-0.7,0.5-0.8,0.8c-0.3,0.9,0.1,1.1,0.2,1.1
	c0.8,0.2,1.3,0.3,2,0.3c3.5,0,6.3-2.8,6.3-6.3c0-3.5-2.8-6.3-6.3-6.3c-1.7,0-3.3,0.7-4.5,1.8c-1.1,1.1-1.8,2.6-1.8,4.1l0,0
	c0,0.2,0,4.6,0,6.1l0,0c-0.7-0.7-1.3-1.8-1.7-3C9,20,8.6,20.1,8.1,20.2C7.9,20.3,7.2,20.5,7.3,21L7.3,21z M14.8,19.3
	c0,0.2,0.2,0.4,0.3,0.5l0,0c0.2,0.2,0.4,0.3,0.6,0.3c0.1,0,0.2-0.1,0.3-0.1c0.1-0.1,1.1-1.1,1.2-1.2l1.1,1.1
	c0.1,0.1,0.2,0.2,0.3,0.2c0.2,0,0.4-0.1,0.6-0.3c0.5-0.5,0.2-0.7,0.1-0.9l-1.1-1.1l1.2-1.2c0.3-0.3,0-0.6-0.2-0.8
	c-0.3-0.3-0.6-0.4-0.8-0.2l-1.2,1.2l-1.2-1.2c-0.1-0.1-0.1-0.1-0.2-0.1c-0.2,0-0.3,0.1-0.5,0.3c-0.4,0.4-0.4,0.6-0.3,0.8l1.2,1.2
	L14.9,19C14.8,19.1,14.8,19.2,14.8,19.3z M17.3,3.4c-1.9,0-3.9,0.4-5.3,1c-0.2,0.1-0.3,0.2-0.3,0.4c0,0.2,0,0.4,0.1,0.7
	c0.1,0.2,0.3,0.8,0.8,0.7c1.5-0.6,3.2-0.9,4.7-0.9c1.7,0,3.4,0.3,4.9,1c1.2,0.5,2.4,1.3,3.7,2.4c0.1,0.1,0.2,0.1,0.3,0.1
	c0.2,0,0.5-0.2,0.7-0.5c0.3-0.4,0.6-0.7,0.2-1c-1.2-1.2-2.5-2-4.2-2.7C21.2,3.8,19.3,3.4,17.3,3.4z M27.4,26.6L27.4,26.6
	c-0.2-0.2-0.4-0.4-0.6-0.4c-0.2,0-0.3,0-0.4,0.1l-0.1,0.1c-1.2,1.2-2.5,2.1-4,2.7c-1.6,0.7-3.2,1-4.9,1c-1.7,0-3.4-0.3-4.9-1
	c-1.5-0.6-2.9-1.5-4-2.7c-1.2-1.2-2.1-2.6-2.7-4c-0.6-1.4-0.8-2.5-0.8-2.8c0,0,0-0.1,0-0.1c-0.1-0.4-0.5-0.4-1-0.4
	c-0.2,0-0.9,0.1-0.9,0.6l0,0c0.2,1.2,0.5,2.3,1,3.4c0.7,1.7,1.8,3.3,3.1,4.6c1.3,1.3,2.9,2.4,4.6,3.1c1.8,0.8,3.7,1.1,5.7,1.1
	c2,0,3.9-0.4,5.7-1.1c1.7-0.7,3.3-1.8,4.6-3.1c0,0,0.1-0.1,0.1-0.1C27.9,27.4,28,27.2,27.4,26.6z"/>
</svg>
