<?xml version="1.0" encoding="utf-8"?>
<!-- Generator: Adobe Illustrator 19.2.1, SVG Export Plug-In . SVG Version: 6.00 Build 0)  -->
<svg version="1.1" id="Layer_1" xmlns="http://www.w3.org/2000/svg" xmlns:xlink="http://www.w3.org/1999/xlink" x="0px" y="0px"
	 viewBox="0 0 32 32" enable-background="new 0 0 32 32" xml:space="preserve">
<path fill="#231F20" d="M23.4,4.1c1.2,0,2.3,0.4,3.2,1.3c0.9,0.9,1.3,1.9,1.3,3.2v14.9c0,1.2-0.4,2.3-1.3,3.2
	c-0.9,0.9-1.9,1.3-3.2,1.3H8.6c-1.2,0-2.3-0.4-3.2-1.3c-0.9-0.9-1.3-1.9-1.3-3.2V8.6c0-1.2,0.4-2.3,1.3-3.2c0.9-0.9,1.9-1.3,3.2-1.3
	H23.4z M14,18.3c0.6-0.6,1-1.4,1-2.3c0-0.9-0.3-1.7-1-2.3c-0.6-0.6-1.4-1-2.3-1s-1.7,0.3-2.3,1c-0.6,0.6-1,1.4-1,2.3
	c0,0.9,0.3,1.7,1,2.3c0.6,0.6,1.4,1,2.3,1S13.3,19,14,18.3z M22.7,18.3c0.6-0.6,1-1.4,1-2.3c0-0.9-0.3-1.7-1-2.3
	c-0.6-0.6-1.4-1-2.3-1c-0.9,0-1.7,0.3-2.3,1c-0.6,0.6-1,1.4-1,2.3c0,0.9,0.3,1.7,1,2.3c0.6,0.6,1.4,1,2.3,1
	C21.3,19.3,22.1,19,22.7,18.3z"/>
</svg>
