<?xml version="1.0" encoding="utf-8"?>
<!-- Generator: Adobe Illustrator 19.2.1, SVG Export Plug-In . SVG Version: 6.00 Build 0)  -->
<svg version="1.1" id="Layer_1" xmlns="http://www.w3.org/2000/svg" xmlns:xlink="http://www.w3.org/1999/xlink" x="0px" y="0px"
	 viewBox="0 0 32 32" enable-background="new 0 0 32 32" xml:space="preserve">
<path fill="#231F20" d="M27.9,7.2v17.7c0,0.8-0.3,1.6-0.9,2.2c-0.6,0.6-1.3,0.9-2.2,0.9H7.2c-0.8,0-1.6-0.3-2.2-0.9
	c-0.6-0.6-0.9-1.3-0.9-2.2V7.2C4.1,6.3,4.4,5.6,5,5c0.6-0.6,1.3-0.9,2.2-0.9h17.7c0.8,0,1.6,0.3,2.2,0.9C27.6,5.6,27.9,6.3,27.9,7.2
	z M25.2,24.2v-10h-2.1c0.2,0.7,0.3,1.3,0.3,2c0,1.3-0.3,2.5-1,3.6c-0.7,1.1-1.6,2-2.7,2.6c-1.1,0.6-2.4,1-3.7,1
	c-2,0-3.8-0.7-5.2-2.1c-1.4-1.4-2.2-3.1-2.2-5.1c0-0.7,0.1-1.4,0.3-2H6.7v10c0,0.3,0.1,0.5,0.3,0.7s0.4,0.3,0.7,0.3h16.6
	c0.3,0,0.5-0.1,0.7-0.3C25.1,24.7,25.2,24.5,25.2,24.2z M19.4,19.2c0.9-0.9,1.4-2,1.4-3.3s-0.5-2.4-1.4-3.3
	c-0.9-0.9-2.1-1.4-3.4-1.4c-1.3,0-2.4,0.5-3.4,1.4c-0.9,0.9-1.4,2-1.4,3.3s0.5,2.4,1.4,3.3c0.9,0.9,2.1,1.4,3.4,1.4
	C17.3,20.6,18.5,20.1,19.4,19.2z M25.2,10.4V7.8c0-0.3-0.1-0.5-0.3-0.8c-0.2-0.2-0.5-0.3-0.8-0.3h-2.7c-0.3,0-0.6,0.1-0.8,0.3
	c-0.2,0.2-0.3,0.5-0.3,0.8v2.6c0,0.3,0.1,0.6,0.3,0.8s0.5,0.3,0.8,0.3h2.7c0.3,0,0.6-0.1,0.8-0.3C25.1,10.9,25.2,10.7,25.2,10.4z"/>
</svg>
