<?xml version="1.0" encoding="utf-8"?>
<!-- Generator: Adobe Illustrator 19.2.1, SVG Export Plug-In . SVG Version: 6.00 Build 0)  -->
<svg version="1.1" id="Layer_1" xmlns="http://www.w3.org/2000/svg" xmlns:xlink="http://www.w3.org/1999/xlink" x="0px" y="0px"
	 viewBox="0 0 32 32" enable-background="new 0 0 32 32" xml:space="preserve">
<path fill="#231F20" d="M9.8,7.3C9.8,8,9.6,8.7,9,9.2C8.5,9.7,7.8,9.9,6.9,9.9h0c-0.8,0-1.5-0.3-2-0.8C4.4,8.7,4.1,8,4.1,7.3
	c0-0.8,0.3-1.4,0.8-1.9C5.4,4.9,6.1,4.6,7,4.6S8.5,4.9,9,5.4C9.6,5.9,9.8,6.5,9.8,7.3z M9.5,12v15.4H4.4V12H9.5z M27.9,18.6v8.8
	h-5.1v-8.2c0-1.1-0.2-1.9-0.6-2.5c-0.4-0.6-1.1-0.9-2-0.9c-0.7,0-1.2,0.2-1.6,0.5c-0.4,0.4-0.8,0.8-1,1.3c-0.1,0.3-0.2,0.7-0.2,1.3
	v8.6h-5.1c0-4.1,0-7.5,0-10c0-2.6,0-4.1,0-4.6l0-0.7h5.1v2.2h0c0.2-0.3,0.4-0.6,0.6-0.9c0.2-0.2,0.5-0.5,0.9-0.8
	c0.4-0.3,0.8-0.5,1.3-0.7c0.5-0.2,1.1-0.2,1.8-0.2c1.8,0,3.2,0.6,4.3,1.8C27.4,14.6,27.9,16.3,27.9,18.6z"/>
</svg>
