<?xml version="1.0" encoding="utf-8"?>
<!-- Generator: Adobe Illustrator 19.2.1, SVG Export Plug-In . SVG Version: 6.00 Build 0)  -->
<svg version="1.1" id="Layer_1" xmlns="http://www.w3.org/2000/svg" xmlns:xlink="http://www.w3.org/1999/xlink" x="0px" y="0px"
	 viewBox="0 0 32 32" enable-background="new 0 0 32 32" xml:space="preserve">
<path fill="#231F20" d="M28.2,8.4c-0.7,1-1.5,1.9-2.5,2.6c0,0.1,0,0.4,0,0.7c0,1.3-0.2,2.7-0.6,4c-0.4,1.3-1,2.6-1.8,3.9
	c-0.8,1.2-1.8,2.3-2.9,3.3c-1.1,0.9-2.4,1.7-4,2.3c-1.6,0.6-3.2,0.8-5,0.8c-2.8,0-5.4-0.7-7.7-2.2c0.4,0,0.8,0.1,1.2,0.1
	c2.3,0,4.4-0.7,6.2-2.1c-1.1,0-2.1-0.4-2.9-1c-0.9-0.6-1.4-1.5-1.8-2.5c0.3,0.1,0.7,0.1,0.9,0.1c0.4,0,0.9-0.1,1.3-0.2
	c-1.2-0.2-2.1-0.8-2.9-1.7c-0.8-0.9-1.1-2-1.1-3.2v-0.1c0.7,0.4,1.5,0.6,2.3,0.6c-0.7-0.5-1.2-1-1.6-1.8C5,11.2,4.8,10.4,4.8,9.5
	C4.8,8.6,5,7.8,5.5,7c1.2,1.5,2.8,2.8,4.6,3.7c1.8,0.9,3.7,1.4,5.8,1.5c-0.1-0.4-0.1-0.8-0.1-1.1c0-1.4,0.5-2.6,1.5-3.5
	c1-1,2.2-1.5,3.5-1.5c1.4,0,2.7,0.5,3.7,1.6c1.1-0.2,2.2-0.6,3.2-1.2c-0.4,1.2-1.1,2.1-2.2,2.8C26.3,9.1,27.3,8.8,28.2,8.4z"/>
</svg>
